<?xml version="1.0" encoding="utf-8"?>
<!-- Generator: Adobe Illustrator 18.1.0, SVG Export Plug-In . SVG Version: 6.00 Build 0)  -->
<svg version="1.1" id="Layer_1" xmlns="http://www.w3.org/2000/svg" xmlns:xlink="http://www.w3.org/1999/xlink" x="0px" y="0px"
	 viewBox="0 0 595.3 430.2" enable-background="new 0 0 595.3 430.2" xml:space="preserve">
<g>
	<path fill="#F6F6F6" d="M98.2,396.3h398.8c14.3,0,27.5-4.2,38.8-11.4l-175-149.8l-0.4,0.3c-16.8,13.9-39.1,21.6-62.8,21.6
		c-23.7,0-46-7.7-62.8-21.6l-0.4-0.3h0l-175,149.8C70.6,392,83.9,396.3,98.2,396.3z"/>
	<path fill="#F6F6F6" d="M69.6,57l0.4,0.3l178.8,161.5c12.9,10.6,30.2,16.4,48.8,16.4c18.6,0,35.9-5.8,48.8-16.4L525.5,57
		c5.3-4.4,8.9-8.2,11.1-11.3c-11.4-7.5-25-11.9-39.7-11.9H98.2c-14.6,0-28.2,4.4-39.7,11.9C60.8,48.8,64.3,52.6,69.6,57z"/>
	<path fill="#F6F6F6" d="M539.5,73.6L377,220.4l175.3,150c10.7-12.6,17.1-28.9,17.1-46.6V106.3c0-17.4-6.2-33.5-16.6-46
		C549.5,64.5,545.2,68.9,539.5,73.6z"/>
	<path fill="#F6F6F6" d="M218.1,220.4L55.6,73.6c-5.7-4.7-10-9.2-13.3-13.4c-10.3,12.5-16.6,28.6-16.6,46v217.5
		c0,17.7,6.5,34,17.1,46.6L218.1,220.4z"/>
</g>
</svg>
